<mxfile host="app.diagrams.net" modified="2023-04-16T22:26:15.484Z" agent="Mozilla/5.0 (Windows NT 10.0; Win64; x64) AppleWebKit/537.36 (KHTML, like Gecko) Chrome/112.0.0.0 Safari/537.36" version="21.1.8" etag="614wuJtfbegHKUm11wRM" type="github">
  <diagram name="PÃ¡gina-1" id="j1wEDJV3abK2l_3NxJ3K">
    <mxGraphModel>
      <root>
        <mxCell id="0" />
        <mxCell id="1" parent="0" />
      </root>
    </mxGraphModel>
  </diagram>
</mxfile>
